<?xml version="1.0" standalone="no"?>
<svg viewBox="0 0 200 200" xmlns="http://www.w3.org/2000/svg">
  <path fill="#8F0E18" d="M33.7,-56C43.8,-52.6,52.1,-43.8,55.3,-33.5C58.4,-23.3,56.4,-11.6,57.2,0.5C58,12.5,61.6,25.1,60.7,39.3C59.8,53.5,54.6,69.5,43.7,79.4C32.9,89.3,16.4,93.1,1.4,90.6C-13.6,88.1,-27.2,79.4,-38.2,69.6C-49.3,59.8,-57.8,49.1,-65.1,37.3C-72.4,25.5,-78.5,12.8,-75.6,1.7C-72.8,-9.5,-61,-18.9,-53.1,-29.7C-45.2,-40.4,-41.2,-52.4,-33,-56.9C-24.8,-61.3,-12.4,-58.1,-0.3,-57.7C11.8,-57.2,23.7,-59.3,33.7,-56Z" transform="translate(100 100)" />
</svg>
