<?xml version="1.0" standalone="no"?>
<svg viewBox="0 0 200 200" xmlns="http://www.w3.org/2000/svg">
  <path fill="#AF344A" d="M31.1,-51.2C41.2,-48.1,50.9,-41.5,55.4,-32.4C59.9,-23.3,59.2,-11.7,57.5,-1C55.8,9.7,53,19.3,47.1,26.1C41.3,32.9,32.4,36.8,24,43.2C15.7,49.5,7.8,58.3,-2.4,62.5C-12.6,66.6,-25.2,66.1,-34,60C-42.8,53.9,-47.8,42.2,-55.1,31.2C-62.5,20.3,-72.1,10.2,-76.9,-2.8C-81.7,-15.7,-81.7,-31.4,-75.5,-44.3C-69.3,-57.2,-57,-67.3,-43.4,-68.3C-29.8,-69.4,-14.9,-61.6,-2.2,-57.8C10.5,-54,21,-54.3,31.1,-51.2Z" transform="translate(100 100)" />
</svg>
