<?xml version="1.0" standalone="no"?>
<svg viewBox="0 0 200 200" xmlns="http://www.w3.org/2000/svg">
  <path fill="#3A5893" d="M33.1,-57.2C41.4,-52.6,45.5,-40.6,50.4,-29.8C55.3,-19.1,60.9,-9.5,62.5,0.9C64,11.3,61.5,22.7,55.7,31.9C50,41.1,41,48.2,31.1,58.6C21.3,68.9,10.7,82.5,-0.4,83.2C-11.5,83.9,-23,71.8,-35.7,63.2C-48.4,54.5,-62.3,49.3,-66.6,39.3C-70.8,29.3,-65.4,14.7,-64.2,0.7C-63,-13.3,-65.9,-26.5,-63.2,-39.2C-60.6,-51.9,-52.2,-64,-40.8,-66.7C-29.3,-69.5,-14.6,-62.9,-1.1,-61C12.4,-59.1,24.9,-61.8,33.1,-57.2Z" transform="translate(100 100)" />
</svg>
