<?xml version="1.0" standalone="no"?>
<svg viewBox="0 0 200 200" xmlns="http://www.w3.org/2000/svg">
  <path fill="#DAA757" d="M31.2,-52.7C38.6,-49.8,41.4,-37.7,51.3,-27.3C61.1,-17,78,-8.5,77.6,-0.2C77.2,8,59.5,16.1,47.6,22.8C35.6,29.6,29.5,35.1,22.6,41.6C15.6,48.2,7.8,55.8,-3,61.1C-13.9,66.4,-27.8,69.3,-41.5,66.6C-55.2,64,-68.8,55.8,-71.6,43.7C-74.4,31.7,-66.4,15.9,-61.5,2.8C-56.6,-10.2,-54.8,-20.4,-50.8,-30.3C-46.8,-40.2,-40.5,-49.8,-31.7,-51.8C-22.8,-53.9,-11.4,-48.4,0.2,-48.8C11.9,-49.3,23.8,-55.6,31.2,-52.7Z" transform="translate(100 100)" />
</svg>
