<?xml version="1.0" standalone="no"?>
<svg viewBox="0 0 200 200" xmlns="http://www.w3.org/2000/svg">
  <path fill="#0B3660" d="M36.6,-60C50.2,-55.6,65.8,-51.3,69.7,-41.3C73.5,-31.4,65.6,-15.7,59.6,-3.5C53.6,8.7,49.5,17.5,45.7,27.5C41.9,37.6,38.4,49.1,30.8,55.8C23.3,62.6,11.6,64.8,1.1,63C-9.5,61.1,-19,55.3,-31.2,51.2C-43.4,47,-58.2,44.6,-64.5,36.3C-70.7,28.1,-68.5,14,-69,-0.3C-69.5,-14.6,-72.7,-29.2,-67.6,-39.6C-62.6,-50,-49.3,-56.1,-36.6,-61C-24,-65.9,-12,-69.5,-0.2,-69.1C11.5,-68.7,23.1,-64.3,36.6,-60Z" transform="translate(100 100)" />
</svg>
