<?xml version="1.0" standalone="no"?>
<svg viewBox="0 0 200 200" xmlns="http://www.w3.org/2000/svg">
  <path fill="#306896" d="M30.6,-63.1C34.4,-50.8,28.7,-32,29.1,-20.4C29.6,-8.8,36.3,-4.4,39,1.6C41.8,7.6,40.6,15.2,39.2,25.1C37.7,35,36,47.2,29.5,52.9C22.9,58.5,11.4,57.6,-2.1,61.3C-15.7,64.9,-31.3,73.1,-39,68.1C-46.8,63.2,-46.6,45,-46.2,31.4C-45.9,17.9,-45.3,8.9,-51.8,-3.8C-58.4,-16.5,-72,-33,-71.1,-44.2C-70.1,-55.5,-54.6,-61.6,-40.3,-67.8C-26,-74.1,-13,-80.5,0.2,-80.8C13.4,-81.2,26.8,-75.3,30.6,-63.1Z" transform="translate(100 100)" />
</svg>
