<?xml version="1.0" standalone="no"?>
<svg viewBox="0 0 200 200" xmlns="http://www.w3.org/2000/svg">
  <path fill="#9D6940" d="M27.8,-50.9C38.1,-42.3,49.8,-38.9,56.4,-31.3C63,-23.6,64.6,-11.8,59.6,-2.9C54.6,6,43,12.1,36.1,19.3C29.2,26.5,27.2,35,21.9,44.2C16.7,53.4,8.4,63.4,-1.6,66.1C-11.5,68.8,-23,64.3,-32.1,57.4C-41.2,50.4,-47.9,40.9,-52.5,31C-57.1,21,-59.7,10.5,-55.9,2.2C-52.1,-6.2,-42.1,-12.3,-36.7,-21C-31.3,-29.6,-30.6,-40.7,-25.3,-52.1C-20,-63.6,-10,-75.3,-0.6,-74.2C8.8,-73.2,17.6,-59.5,27.8,-50.9Z" transform="translate(100 100)" />
</svg>
