<?xml version="1.0" standalone="no"?>
<svg viewBox="0 0 200 200" xmlns="http://www.w3.org/2000/svg">
  <path fill="#B82C3C" d="M35.2,-57.5C48.4,-53.4,63.8,-49.6,67,-40C70.1,-30.5,61.1,-15.2,57.2,-2.2C53.4,10.8,54.7,21.6,53.3,34.1C51.9,46.7,47.7,61,38.3,66.2C29,71.4,14.5,67.5,1.3,65.2C-11.8,62.8,-23.6,62.1,-37.5,59.5C-51.4,57,-67.3,52.5,-73.4,42.3C-79.5,32.1,-75.6,16,-69,3.8C-62.4,-8.4,-53,-16.8,-48.9,-30.4C-44.8,-44,-45.9,-62.7,-38.6,-70.2C-31.3,-77.8,-15.7,-74.1,-2.3,-70C11,-66,22,-61.6,35.2,-57.5Z" transform="translate(100 100)" />
</svg>
