<?xml version="1.0" standalone="no"?>
<svg viewBox="0 0 200 200" xmlns="http://www.w3.org/2000/svg">
  <path fill="#898586" d="M34.8,-60.8C47.4,-53.1,61.3,-48.3,70.8,-38.6C80.3,-29,85.3,-14.5,83.8,-0.9C82.3,12.7,74.2,25.5,67.1,39.2C60,52.9,53.7,67.6,42.7,74C31.7,80.4,15.8,78.5,2,75.1C-11.9,71.8,-23.8,66.9,-37.2,61.8C-50.6,56.7,-65.4,51.5,-71.3,41.2C-77.2,30.8,-74.3,15.4,-70.3,2.3C-66.4,-10.9,-61.4,-21.7,-57.6,-35.7C-53.8,-49.7,-51.1,-66.9,-41.7,-76.4C-32.3,-86,-16.2,-87.9,-2.5,-83.6C11.1,-79.2,22.3,-68.6,34.8,-60.8Z" transform="translate(100 100)" />
</svg>
