<?xml version="1.0" standalone="no"?>
<svg viewBox="0 0 200 200" xmlns="http://www.w3.org/2000/svg">
  <path fill="#AD4158" d="M29.4,-48.3C39,-45.4,48.2,-39.3,55.2,-30.7C62.1,-22.1,66.8,-11.1,65.8,-0.6C64.7,9.9,58,19.7,49.7,25.9C41.3,32.1,31.4,34.6,22.8,44.2C14.3,53.9,7.1,70.7,-4,77.5C-15,84.4,-30.1,81.2,-39.8,72.3C-49.6,63.3,-54,48.6,-58,35.5C-61.9,22.5,-65.3,11.3,-62.8,1.4C-60.4,-8.4,-52,-16.8,-48.8,-31.2C-45.7,-45.6,-47.8,-66,-40.5,-70.2C-33.2,-74.5,-16.6,-62.6,-3.4,-56.8C9.9,-51,19.8,-51.2,29.4,-48.3Z" transform="translate(100 100)" />
</svg>
